<?xml version="1.0" encoding="UTF-8" standalone="no"?>
<!-- Created with Inkscape (http://www.inkscape.org/) -->

<svg
   width="79.829498mm"
   height="7.7721105mm"
   viewBox="0 0 79.829498 7.7721105"
   version="1.1"
   id="svg1"
   inkscape:version="1.4 (e7c3feb, 2024-10-09)"
   sodipodi:docname="logo.en.svg"
   xmlns:inkscape="http://www.inkscape.org/namespaces/inkscape"
   xmlns:sodipodi="http://sodipodi.sourceforge.net/DTD/sodipodi-0.dtd"
   xmlns="http://www.w3.org/2000/svg"
   xmlns:svg="http://www.w3.org/2000/svg">
  <sodipodi:namedview
     id="namedview1"
     pagecolor="#ffffff"
     bordercolor="#666666"
     borderopacity="1.0"
     inkscape:showpageshadow="2"
     inkscape:pageopacity="0.0"
     inkscape:pagecheckerboard="0"
     inkscape:deskcolor="#d1d1d1"
     inkscape:document-units="mm"
     inkscape:zoom="0.70377385"
     inkscape:cx="333.20363"
     inkscape:cy="159.14203"
     inkscape:window-width="1920"
     inkscape:window-height="995"
     inkscape:window-x="960"
     inkscape:window-y="1104"
     inkscape:window-maximized="1"
     inkscape:current-layer="layer1" />
  <defs
     id="defs1" />
  <g
     inkscape:label="Layer 1"
     inkscape:groupmode="layer"
     id="layer1"
     transform="translate(-17.033984,-106.2439)">
    <path
       d="m 22.180941,113.91266 -1.891352,-3.02306 h -2.268588 v 3.02306 h -0.987017 v -7.28119 h 3.426137 q 1.229895,0 1.896519,0.55294 0.671791,0.54777 0.671791,1.52962 0,0.81131 -0.475421,1.36425 -0.470254,0.55294 -1.302242,0.69763 l 2.06705,3.13675 z m -0.144694,-5.1883 q 0,-0.63562 -0.434081,-0.96634 -0.428913,-0.3359 -1.24023,-0.3359 h -2.340935 v 2.68717 h 2.382276 q 0.780312,0 1.204057,-0.36174 0.428913,-0.3669 0.428913,-1.02319 z m 9.498098,1.51412 q 0,1.14204 -0.439248,1.99987 -0.434081,0.85782 -1.250566,1.31774 -0.816485,0.45992 -1.927525,0.45992 -1.121375,0 -1.93786,-0.45475 -0.811317,-0.45475 -1.24023,-1.31258 -0.428913,-0.86299 -0.428913,-2.0102 0,-1.74666 0.956011,-2.72851 0.956011,-0.98702 2.661328,-0.98702 1.111039,0 1.927524,0.44442 0.816485,0.43925 1.245398,1.28157 0.434081,0.84232 0.434081,1.98954 z m -1.007687,0 q 0,-1.35909 -0.682127,-2.13423 -0.676959,-0.77515 -1.917189,-0.77515 -1.250566,0 -1.932693,0.76481 -0.682127,0.76481 -0.682127,2.14457 0,1.36942 0.687295,2.17557 0.692462,0.80098 1.917189,0.80098 1.260901,0 1.932693,-0.77514 0.676959,-0.78032 0.676959,-2.20141 z m 8.087337,1.66397 q 0,1.00769 -0.790647,1.56063 -0.78548,0.55293 -2.216912,0.55293 -2.661328,0 -3.085073,-1.85001 l 0.956011,-0.1912 q 0.165364,0.65629 0.702797,0.96634 0.537433,0.30489 1.462438,0.30489 0.956011,0 1.472774,-0.32556 0.52193,-0.33072 0.52193,-0.96634 0,-0.35657 -0.165364,-0.57878 -0.160196,-0.2222 -0.454751,-0.3669 -0.294555,-0.14469 -0.702797,-0.24288 -0.408243,-0.0982 -0.904335,-0.21187 -0.862994,-0.1912 -1.312577,-0.3824 -0.444416,-0.19121 -0.702797,-0.42375 -0.258382,-0.23771 -0.397908,-0.55293 -0.134358,-0.31523 -0.134358,-0.72347 0,-0.93534 0.713133,-1.44177 0.7183,-0.50643 2.051547,-0.50643 1.240231,0 1.896519,0.38241 0.656289,0.37723 0.919838,1.2919 l -0.971514,0.17054 q -0.160196,-0.57878 -0.60978,-0.83716 -0.449583,-0.26355 -1.245398,-0.26355 -0.873329,0 -1.333248,0.28939 -0.459918,0.28938 -0.459918,0.86299 0,0.3359 0.175699,0.55811 0.180867,0.21704 0.516763,0.37206 0.335895,0.14987 1.338415,0.37207 0.335896,0.0775 0.666624,0.1602 0.335896,0.0775 0.640786,0.1912 0.30489,0.10852 0.568438,0.25838 0.268717,0.14986 0.465087,0.3669 0.19637,0.21705 0.30489,0.5116 0.113688,0.29455 0.113688,0.69246 z m 1.018021,2.01021 v -0.65629 q 0.263549,-0.60461 0.640786,-1.06453 0.382404,-0.46509 0.800982,-0.83716 0.418578,-0.37723 0.82682,-0.69763 0.41341,-0.32039 0.744138,-0.64078 0.330729,-0.32039 0.532266,-0.67179 0.206705,-0.3514 0.206705,-0.79582 0,-0.59944 -0.351399,-0.93017 -0.351398,-0.33073 -0.976681,-0.33073 -0.594277,0 -0.981849,0.32556 -0.382404,0.32039 -0.449584,0.90434 l -0.950843,-0.0879 q 0.103353,-0.87333 0.738971,-1.39009 0.640785,-0.51677 1.643305,-0.51677 1.100705,0 1.689814,0.52193 0.594277,0.51677 0.594277,1.47278 0,0.42374 -0.19637,0.84232 -0.191202,0.41858 -0.573606,0.83716 -0.382405,0.41857 -1.462439,1.29707 -0.594277,0.48576 -0.945675,0.8785 -0.351399,0.38757 -0.506428,0.7493 h 3.798206 v 0.79065 z m 9.002007,0 v -5.59137 h 0.930173 v 5.59137 z m 0,-6.77993 v -0.88883 h 0.930173 v 0.88883 z m 5.906596,6.77993 v -3.54499 q 0,-0.55294 -0.10852,-0.85783 -0.108521,-0.30489 -0.346231,-0.43925 -0.237711,-0.13436 -0.69763,-0.13436 -0.671792,0 -1.059364,0.45992 -0.387572,0.45992 -0.387572,1.27641 v 3.2401 H 51.01113 v -4.39765 q 0,-0.97668 -0.03101,-1.19372 h 0.878496 q 0.0052,0.0258 0.01034,0.13952 0.0052,0.11369 0.01034,0.26355 0.01033,0.14469 0.02067,0.55294 h 0.0155 q 0.320393,-0.57878 0.738971,-0.81649 0.423745,-0.24288 1.049028,-0.24288 0.919838,0 1.343583,0.45992 0.428913,0.45475 0.428913,1.50895 v 3.72586 z m 11.063891,-5.09011 q 0,1.03352 -0.676959,1.6433 -0.671791,0.60978 -1.82934,0.60978 h -2.139397 v 2.83703 h -0.987017 v -7.28119 H 63.0362 q 1.224727,0 1.896519,0.57361 0.671791,0.57361 0.671791,1.61747 z m -0.992184,0.0103 q 0,-1.41076 -1.694982,-1.41076 h -1.95853 v 2.8732 h 1.999871 q 1.653641,0 1.653641,-1.46244 z m 2.284088,5.07978 v -4.28913 q 0,-0.58911 -0.03101,-1.30224 h 0.878497 q 0.04134,0.95084 0.04134,1.14204 h 0.02067 q 0.222208,-0.7183 0.511595,-0.98185 0.289387,-0.26355 0.816485,-0.26355 0.186035,0 0.377237,0.0517 v 0.85266 q -0.186034,-0.0517 -0.496092,-0.0517 -0.578774,0 -0.883664,0.50126 -0.30489,0.49609 -0.30489,1.42627 v 2.91454 z m 4.929917,0.10335 q -0.842323,0 -1.266069,-0.44441 -0.423745,-0.44442 -0.423745,-1.21956 0,-0.86817 0.568439,-1.33325 0.573607,-0.46509 1.844843,-0.49609 l 1.255733,-0.0207 v -0.30489 q 0,-0.68213 -0.289387,-0.97669 -0.289387,-0.29455 -0.909502,-0.29455 -0.625283,0 -0.909503,0.21187 -0.284219,0.21187 -0.341063,0.67696 l -0.971514,-0.0879 q 0.237711,-1.50895 2.24275,-1.50895 1.054196,0 1.586462,0.48576 0.532265,0.48059 0.532265,1.39526 v 2.40811 q 0,0.41341 0.10852,0.62529 0.10852,0.2067 0.41341,0.2067 0.134359,0 0.30489,-0.0362 v 0.57877 q -0.351398,0.0827 -0.7183,0.0827 -0.516762,0 -0.754473,-0.26871 -0.232543,-0.27389 -0.263549,-0.85266 h -0.03101 q -0.356566,0.64079 -0.831988,0.9095 -0.470254,0.26355 -1.147213,0.26355 z m 0.211873,-0.69763 q 0.511595,0 0.909502,-0.23254 0.397907,-0.23254 0.625283,-0.63562 0.232543,-0.40824 0.232543,-0.83716 v -0.45991 l -1.018022,0.0207 q -0.656289,0.0103 -0.997352,0.13435 -0.335896,0.12403 -0.516763,0.38241 -0.180867,0.25838 -0.180867,0.67696 0,0.45475 0.242878,0.7028 0.248047,0.24804 0.702798,0.24804 z m 4.955752,-2.22725 q 0,1.11621 0.351399,1.65365 0.351398,0.53743 1.059363,0.53743 0.496092,0 0.826821,-0.26872 0.335895,-0.26871 0.41341,-0.82682 l 0.940508,0.062 q -0.10852,0.80615 -0.687295,1.28674 -0.578774,0.48059 -1.467606,0.48059 -1.173051,0 -1.793166,-0.73897 -0.614948,-0.74414 -0.614948,-2.16524 0,-1.41076 0.620116,-2.14973 0.620115,-0.74414 1.777663,-0.74414 0.857826,0 1.421098,0.44442 0.568438,0.44442 0.713132,1.22473 l -0.956011,0.0723 q -0.07235,-0.46508 -0.366901,-0.73897 -0.294555,-0.27388 -0.837156,-0.27388 -0.738971,0 -1.069699,0.49092 -0.330728,0.49093 -0.330728,1.65364 z m 6.733417,2.78019 q -0.459919,0.12402 -0.940508,0.12402 -1.116208,0 -1.116208,-1.26607 v -3.73102 h -0.645953 v -0.67696 h 0.682127 l 0.273884,-1.25057 h 0.620115 v 1.25057 h 1.033526 v 0.67696 H 82.60083 v 3.52948 q 0,0.40308 0.129191,0.56844 0.134358,0.1602 0.459919,0.1602 0.186034,0 0.537433,-0.0724 z m 0.785483,0.0413 v -5.59137 h 0.930173 v 5.59137 z m 0,-6.77993 v -0.88883 h 0.930173 v 0.88883 z m 3.064398,3.9584 q 0,1.11621 0.351399,1.65365 0.351398,0.53743 1.059363,0.53743 0.496092,0 0.82682,-0.26872 0.335896,-0.26871 0.41341,-0.82682 l 0.940509,0.062 q -0.108521,0.80615 -0.687295,1.28674 -0.578774,0.48059 -1.467606,0.48059 -1.173051,0 -1.793166,-0.73897 -0.614948,-0.74414 -0.614948,-2.16524 0,-1.41076 0.620115,-2.14973 0.620115,-0.74414 1.777664,-0.74414 0.857826,0 1.421097,0.44442 0.568439,0.44442 0.713133,1.22473 l -0.956011,0.0723 q -0.07235,-0.46508 -0.366902,-0.73897 -0.294554,-0.27388 -0.837155,-0.27388 -0.738971,0 -1.069699,0.49092 -0.330728,0.49093 -0.330728,1.65364 z m 5.296824,0.22221 q 0,0.96118 0.397907,1.48311 0.397908,0.52193 1.162716,0.52193 0.604613,0 0.966347,-0.24288 0.366901,-0.24288 0.496092,-0.61494 l 0.816485,0.23254 q -0.50126,1.32291 -2.278924,1.32291 -1.24023,0 -1.891351,-0.73897 -0.645953,-0.73897 -0.645953,-2.19624 0,-1.38492 0.645953,-2.1239 0.651121,-0.73897 1.855178,-0.73897 2.464958,0 2.464958,2.97139 v 0.12402 z m 3.028229,-0.71313 q -0.07751,-0.88366 -0.449583,-1.28674 -0.372069,-0.40824 -1.069699,-0.40824 -0.676959,0 -1.074866,0.45475 -0.39274,0.44958 -0.423746,1.24023 z"
       id="text1"
       style="font-size:10.5833px;line-height:1.25;font-family:Arimo;-inkscape-font-specification:Arimo;stroke-width:0.264583"
       aria-label="ROS2 in Practice" />
  </g>
</svg>
